<svg xmlns="http://www.w3.org/2000/svg" version="1.1" xmlns:xlink="http://www.w3.org/1999/xlink" xmlns:svgjs="http://svgjs.dev/svgjs" viewBox="0 0 1422 800"><defs><linearGradient x1="50%" y1="0%" x2="50%" y2="100%" id="ssscribble-grad"><stop stop-color="hsl(30, 100%, 50%)" stop-opacity="1" offset="0%"></stop><stop stop-color="hsl(55, 94%, 54%)" stop-opacity="1" offset="100%"></stop></linearGradient></defs><g fill="none" stroke-width="1" stroke="url(#ssscribble-grad)" stroke-linecap="round" stroke-dasharray="1"><path d="M1285.69 439.78C1276.15 472.65 1230.17 510.21 1166.13 551.15 1105.95 591.36 1065.75 633.26 1052.94 673.9 1068.39 710.32 1098.73 740.8 1129.84 761.15 1155.33 772.38 1161.74 770.58 1147.54 756.18 1116.44 738.81 1070.93 719.23 1018.39 706.33 961.42 711.84 906.15 737.16 855.62 783.11 807.26 843.6 764.11 905.54 725.46 952.38 688.03 972.61 653.08 957.81 620.22 911.3 587.35 852.55 558.14 799.55 533.6 768.07 510.28 766.96 493.65 789.99 485.06 825.25 479.22 876.31 487.18 856.23 474.37 786.64 445.5 728.28 400.14 669.49 340.42 615.36 275.1 566.1 215.29 524.11 175.75 488.14 164.47 456.82 185.97 428 233.47 399.38 284.83 372.03 324.15 342.36 333.69 309.5 305.11 276.64 254.26 242.15 202.45 207.52 165.18 174.17 160.42 143.21 188.93 117.58 241.85 96.6 307.2 84.48 370.02 83.09 436.51 92.37 464.67 120.52 455.01 102.55 447.65 65 448.36 10.91 458.12 -51.91 471.48 -111.26 492.65 -153 519.38 -164.57 547.54 -145.78 578.72 -99.45 611.58 -40.7 644.44 5.81 677.43 27.28 711.24 19.74 746.48 -14.4 785.09 -57.65 828.68 -94.05 875.87 -115.92 929.27 -111.77 987.29 -83.07 1044.21 -35.95 1098.15 22.58 1141.47 83.02 1168.91 140.49 1175.55 189.47 1159.44 228.88 1130.84 259.18 1094.95 282.81 1066.12 303.35 1061.69 319.65 1085.16 337.53 1135.11 359.29 1199.6 380.32 1257.11 406.92 1285.69 439.78Q1285.69 439.78 1285.69 439.78" opacity="0.80"></path><path d="M1251.69 485.59C1244.1 516.1 1204.11 548.66 1145.98 581.93 1087.25 614.13 1041.84 644.93 1018.26 671.64 1066.23 705.71 1090.32 671.08 1040.46 667.5 996.07 686.44 948.32 722.4 901.32 773.21 853.47 831.73 809.15 886.68 769.43 924.73 730.09 938.25 694.96 921.28 664.45 877.3 633.94 822.72 609.49 771.79 591.27 737.84 573.45 729.34 562.26 742.97 557.23 770.68 550.1 821.23 527.14 839.49 489.16 794.53 446.74 748.82 392.81 697.21 332.33 645.13 274.29 593.22 227.81 545.57 203.73 503.09 204.95 463.44 232.99 427.74 279.94 394.85 326.3 363.03 360.1 332.09 367.69 301.57 342.25 271.06 296.75 242.42 248.03 216.69 208.25 192.04 194.15 172.23 209.08 158.99 247.95 148.6 303.81 146 364.52 150.88 421.2 155.92 466.42 163.74 497.83 169.45 514.73 164.45 521.66 148.21 523.9 117.13 520.58 70.99 520.03 14.54 525.02 -43.82 530.64 -93.9 543.29 -124.91 562.59 -128.19 582.65 -106.01 608.2 -61.28 638.72 -6.7 669.23 37.28 703.26 60.44 740.75 58.71 779 32.43 821.85 -5.14 869.11 -41.29 917 -69.74 967.8 -78.33 1018.15 -65.51 1062.94 -34.86 1099.82 10.71 1122.91 63.7 1131.5 119.8 1122.45 173.09 1097.54 220.41 1068.61 262.13 1040.12 297.28 1023.61 327.55 1031.05 353.72 1062.51 378.44 1114.08 403.78 1174.57 428.05 1226.26 455.07 1251.69 485.59Q1251.69 485.59 1251.69 485.59" opacity="0.17"></path><path d="M1217.69 499.7C1211.87 527.87 1177.62 554.85 1125.78 579.68 1070.1 603.56 1021.99 623.54 990.02 637.93 1010.34 646.53 1062.55 623.79 1038.92 640.38 1011.58 670.36 977.53 713.29 940.58 765.27 900.85 819.31 861.8 866.19 825.54 895.66 788.93 903.18 756.05 884.61 727.88 843.3 699.72 792.92 677.6 744.51 661.09 709.08 644.22 694.37 632.04 699.07 622.95 718.23 611.09 748.57 598.75 777.76 582.69 798.44 558.74 809.87 526.62 805.61 484.89 787.01 435.39 757.41 380.35 718.66 325.85 675.41 279.38 628.82 247.79 582.86 238.15 539.8 249.47 497.41 281.54 458.69 326.36 423.83 367.33 389.55 395.87 358.25 401.69 330.08 379.25 301.91 339.05 278.22 294.14 259.38 243.02 234.86 281.45 216.21 356.37 219.18 412.43 219.01 463.95 217.33 506.5 210.01 538.57 191.7 560.64 162.57 575.56 121.81 583.17 71.8 589.18 17.35 596.81 -33.62 602.7 -73.42 613.18 -94.16 629.32 -90.33 645.44 -65.77 667.49 -23.08 695.66 27.29 723.83 68.61 756.77 92.9 793.77 96.25 830.76 77.65 871.51 46.8 914.44 13.41 955.62 -17.92 995.99 -35.59 1031.8 -36.24 1060.29 -21.84 1078.66 8.22 1083.5 48.86 1077.87 96.48 1059.74 146.4 1033.01 194.57 1009.08 241.13 991.03 283.1 987.21 320.31 1004.96 354.73 1042.15 385.98 1093.56 415.23 1149.34 443.52 1195.25 471.54 1217.69 499.7Q1217.69 499.7 1217.69 499.7" opacity="0.60"></path><path d="M1183.69 476.91C1179.45 502.73 1150.64 524.82 1105.33 542.76 1054.01 560.14 1005.61 572.48 968.03 579.23 957.48 581.05 1011.78 590.45 1008.75 624.84 997.74 662.29 978.94 708.18 954.92 757.94 927.65 805.52 898.22 843.76 868.84 865.1 838.7 867.41 810.17 847.8 784.35 809.3 758.53 763.15 736.65 717.67 718.09 681.73 698.77 662.11 681.23 658.78 663.76 669.1 643.04 691.74 619.32 717.33 590.54 739.62 555.87 758.08 514.6 765.42 467.53 760.96 418.25 747.43 368.99 723.88 325.55 693.53 292.99 658.16 276.12 620.25 278.81 582.51 297.47 543.69 331.17 506.98 372.53 473.58 407.87 440.2 431.45 410.28 435.69 384.46 416.09 358.64 381.08 338.15 340.54 322.84 287.92 302.41 293.66 282.04 350.38 275.32 399.7 265.87 450.44 252.36 497.53 232.04 539.27 202.66 573.46 164.72 600.65 119.37 621.27 70.2 637.84 21.46 652.89 -20.1 665.05 -49.35 678.82 -60.72 695.81 -51.07 712.24 -25.1 733.09 15.14 758.91 61.28 784.73 99.79 814.29 124.64 846.56 132.3 878.27 120.93 911.46 97.39 944.05 68.73 1009.81 19.46 1003.13 100.43 970.63 162.89 955.5 206.85 949.25 249.08 957.22 288.07 983.13 326.07 1023.71 360.7 1073.34 392.01 1123.85 422.76 1164.09 451.09 1183.69 476.91Q1183.69 476.91 1183.69 476.91" opacity="0.15"></path><path d="M1149.65 425.54C1146.89 449.01 1123.26 467.72 1084.6 481.75 1038.7 495.68 992.18 504.9 951.83 509.78 913.78 516.39 909.36 526.14 926.37 540.31 940.3 559.03 949.72 585.2 952.96 619.27 953.36 660.05 946.88 705.02 934.54 749.74 919.71 789.5 900.82 818.98 879.43 832.9 857.28 830.86 834.05 810.74 810.58 775.19 787.11 733.29 764.5 691.09 742.39 655.58 719.51 632.43 695.7 622.31 669.85 624.21 641.52 638.13 609.34 657.4 572.77 677.19 533.35 697.48 490.24 711.23 445.54 716.64 403.03 716.12 364.66 706.63 335.13 689.83 316.84 668.12 313.06 641.88 325.27 613.44 348.42 583.03 381.58 552.64 418.41 523.85 448.02 494.69 466.89 467.94 469.65 444.47 452.65 421 422.6 401.91 386.8 386.81 335.28 365.18 314.32 330.31 351.19 309.64 389.45 290.26 433.29 266.05 478.07 235.81 522.2 199.63 562.4 158.06 597.55 113.33 628.48 69.09 654.95 28.77 678.2 -2.35 698.74 -21.45 718.36 -24.69 738.4 -10.6 757.71 15.85 778.86 53.29 802.33 95.19 825.81 130.74 850.49 155.61 875.44 166.72 899.67 161.86 922.75 145.74 942.89 123.17 970.96 65.16 936.89 92.92 915.05 138.3 910.55 173.56 915.76 209.85 933.48 245.09 964.92 280.89 1006.53 314.38 1052.98 344.71 1097.84 374.95 1132.65 402.07 1149.65 425.54Q1149.65 425.54 1149.65 425.54" opacity="0.30"></path><path d="M1115.69 364.89C1114.02 386.02 1094.99 403.02 1062.75 416.22 1022.98 429.67 980.23 439.87 940 447.65 906.25 456.85 881.01 465.28 864.74 474.49 858.2 487.55 858.2 503.89 861.95 524.95 870.31 551.78 877.9 584.15 882.63 621.34 887.33 661.34 887.27 702.06 882.21 739.65 870.59 781.45 826.01 783.83 795.71 741.31 774.58 703.68 751.7 665.08 727.09 630.86 702.01 605.58 674.38 590.18 643.99 584.67 612.45 589.84 577.72 601.25 540.46 615.55 503.17 633.17 465.25 648.1 429.2 658.2 385.24 666.01 354.68 644.23 376.09 618.96 400.84 598.92 431.57 577.02 463.19 554.63 487.28 531.73 502.02 509.34 503.69 488.21 489.3 467.09 464.11 448.23 433.34 431.29 399.36 413.84 370.8 397.32 351.88 380.74 342.42 362.2 346.26 341.83 362.03 318.52 387.06 291.64 419.79 260.6 456.63 225.45 496.15 187.67 535.34 147.69 572.21 108.07 607.63 71.77 639.71 41.42 668.41 20.77 695.42 10.79 720.1 14.17 743.04 31.29 765.4 57.36 787.08 91.68 808.2 129.31 829.33 161.79 848.9 186.14 866.38 199.82 890.15 196.04 915.9 142.75 914.39 113.85 891.02 100.41 883.28 168.84 915.77 209.43 950.18 238.26 990.77 266.49 1032.9 292.88 1071.82 319.52 1101.29 343.76 1115.69 364.88Q1115.69 364.89 1115.69 364.89" opacity="0.90"></path><path d="M1081.68 317.11C1081 335.89 1066.23 352.34 1040.21 366.74 1006.98 381.52 969.43 395 931.72 407.97 896.91 422.46 867.13 437.87 843.62 455.2 827.26 475.58 816.88 499.27 811.04 526.68 810.34 557.36 811.25 591.28 811.94 627.12 814.43 662.84 814.57 696.85 811.43 726.13 804.94 755.55 772.12 746.34 745.9 707.29 727.13 673.93 705.34 639.2 680.95 607.07 656.44 581.05 629.17 562.04 599.68 550.62 570.28 547.89 539.22 551.15 507.78 558.31 478.15 570.1 450.28 581.92 426.37 591.79 402.31 604.75 467.84 575.14 507.26 552.22 526.04 535.79 537 517.96 537.68 499.18 525.63 480.4 504.96 461.57 479.26 442.58 449.57 423.18 422.58 402.83 401.69 381.08 386.49 357.97 381.17 332.45 385.59 304.26 397.69 274.29 417.75 241.63 443.4 207.12 473.24 172.64 505.38 138.56 537.75 107.22 570.85 80.5 602.47 60.41 631.69 49.37 660.45 47.02 686.76 55.35 710.45 74.13 733.87 99.01 755.09 129.93 773.87 163.29 834.07 182.07 828.14 140.84 836.69 151.04 851.82 162.65 873.97 178.16 902.93 196.21 937.59 215.79 975.26 236.46 1012.2 257.09 1045.14 278.11 1069.62 298.32 1081.68 317.1Q1081.68 317.11 1081.68 317.11" opacity="0.84"></path><path d="M1047.68 300.01C1038.14 332.88 990.15 365.21 925.39 399.2 862.06 437.64 812.17 484.6 779.5 540.74 763.71 601.04 754.48 661.94 742.55 708.24 733.89 731.23 714.55 719.8 681.69 673.28 648.83 614.53 605.55 559.18 557.27 522.32 465.63 528.91 544.8 517.59 571.68 473.44 543.1 440.58 497.05 400.54 455.29 353.96 424.16 305.15 422.4 248.14 445.97 188.88 485.89 136.09 536.34 96.37 585.63 83.73 636.67 96.5 680.76 138.53 713.62 197.28 755.75 256.18 778.99 234.41 782.55 204.15 802.05 191.09 838.67 195.41 893.88 213.91 959.74 236.88 1019.1 267.15 1047.68 300.01Q1047.68 300.01 1047.68 300.01" opacity="0.70"></path><path d="M1013.69 319.93C1007.86 348.09 971.76 381.56 919.37 419.93 862.56 460.38 810.31 508.12 768.93 559.98 738.3 610.08 715.44 655.55 695.21 685.24 678.72 696.09 657.76 680.62 629.6 639.31 601.43 588.93 568.72 538.64 536.4 499.63 497.27 473.34 496.08 475.45 543.43 470.92 575.18 465.26 599.86 448.67 605.69 420.51 583.26 392.34 547.12 355.26 511.26 312.11 477.94 269.26 463.6 222.43 468.86 178.69 486.31 143.54 516.55 122.45 551.07 123.69 588.76 142.05 624.1 180.93 652.27 231.31 680.44 272.62 698.76 299.5 709.89 309.3 724.18 300.25 737.89 284.66 757.35 271.47 789.01 256.53 833.22 252.75 887.18 261.11 943.7 271.56 991.25 291.75 1013.69 319.92Q1013.69 319.93 1013.69 319.93" opacity="0.08"></path><path d="M979.69 369.47C976.83 392.94 951.44 423.64 912.03 459.44 865.91 495.4 818.63 535.84 776.47 576.26 739.06 612.33 707.74 641.52 681.37 656.63 657.61 658.23 634.52 640.86 611.05 605.31 587.58 563.41 565.95 519.73 549.03 482.02 532.07 445.01 558.64 416.37 598.75 405.29 620.95 398.05 636.83 383.46 639.69 359.99 622.78 336.52 596.11 306.39 567.97 272.95 537.78 240.99 518.38 209.07 512.29 182.99 513.02 164.44 525.37 158.32 544.88 168.74 567.11 189.25 591.68 223.41 615.15 265.31 638.62 300.86 658.78 327.74 677.22 343.35 698.38 345.44 722.67 341.14 752.7 335.84 789.55 326.19 833.84 322.38 881.24 327.09 926.58 331.97 962.78 345.99 979.69 369.46Q979.69 369.47 979.69 369.47" opacity="0.70"></path><path d="M945.69 430.3C945.02 449.08 928.79 473.48 901.84 501.07 868.52 527.9 831.43 556.17 795.51 582 760.25 603.54 728.37 618.3 701.27 622.25 675.26 617.78 652.53 600.58 633.75 571.3 614.97 537.93 601.93 502.07 595.39 468.7 589.95 440.24 592.52 416.62 603.18 397.83 614.48 383.93 631.66 371.64 651.21 358.88 664.4 347.58 673.02 333.05 673.69 314.27 661.63 295.49 643.51 274.25 623.78 253 578.14 213.12 591.26 251.81 617.56 299.3 636.34 328.58 657.08 353.39 679.74 371.63 703.86 381.44 732.2 386.6 764.53 389.66 799.23 388.45 837.22 389.48 874.41 395.19 907.9 400.15 933.63 411.52 945.69 430.3Q945.69 430.3 945.69 430.3" opacity="0.13"></path><path d="M911.69 479.93C905.86 508.09 866.03 544.26 816.98 571.6 763.71 587.85 716.45 578.62 688.29 537.31 660.12 486.92 656.37 432.89 672.73 390.75 684.87 357.69 701.86 328.46 707.69 300.29 671.24 261.24 627.5 267.32 658.52 333.31 686.69 374.62 731.98 406.68 785.32 427.35 838.39 436.92 889.26 451.76 911.69 479.93Q911.69 479.93 911.69 479.93" opacity="0.62"></path><path d="M877.69 499.95C863.7 537.51 789.77 554.41 752.22 503.3 714.66 436.34 727.7 360.76 741.69 323.2 706.4 285.65 683.54 300.34 721.1 367.3 758.65 418.41 842.4 462.4 877.69 499.95Q877.69 499.95 877.69 499.95" opacity="0.16"></path></g></svg>